<mxfile host="app.diagrams.net" modified="2023-03-07T18:58:54.235Z" agent="5.0 (X11; Ubuntu)" etag="FWZ8ZokF3bpbLCrtZRMh" version="21.0.2" type="github">
  <diagram name="Page-1" id="e7e014a7-5840-1c2e-5031-d8a46d1fe8dd">
    <mxGraphModel dx="1600" dy="795" grid="1" gridSize="10" guides="1" tooltips="1" connect="1" arrows="1" fold="1" page="1" pageScale="1" pageWidth="1169" pageHeight="826" background="none" math="0" shadow="0">
      <root>
        <mxCell id="0" />
        <mxCell id="1" parent="0" />
        <mxCell id="Kg89tS13pz8DBJf1CAMh-38" style="edgeStyle=orthogonalEdgeStyle;rounded=0;orthogonalLoop=1;jettySize=auto;html=1;entryX=0.736;entryY=1;entryDx=0;entryDy=0;entryPerimeter=0;" parent="1" source="Kg89tS13pz8DBJf1CAMh-63" target="Kg89tS13pz8DBJf1CAMh-51" edge="1">
          <mxGeometry relative="1" as="geometry">
            <Array as="points">
              <mxPoint x="835" y="418" />
              <mxPoint x="551" y="418" />
            </Array>
          </mxGeometry>
        </mxCell>
        <mxCell id="Kg89tS13pz8DBJf1CAMh-39" value="" style="edgeStyle=orthogonalEdgeStyle;rounded=0;orthogonalLoop=1;jettySize=auto;html=1;entryX=-0.018;entryY=0.5;entryDx=0;entryDy=0;entryPerimeter=0;" parent="1" source="Kg89tS13pz8DBJf1CAMh-48" target="Kg89tS13pz8DBJf1CAMh-59" edge="1">
          <mxGeometry relative="1" as="geometry">
            <mxPoint x="790" y="263" as="targetPoint" />
          </mxGeometry>
        </mxCell>
        <mxCell id="Kg89tS13pz8DBJf1CAMh-40" style="edgeStyle=orthogonalEdgeStyle;rounded=0;orthogonalLoop=1;jettySize=auto;html=1;" parent="1" source="Kg89tS13pz8DBJf1CAMh-47" target="Kg89tS13pz8DBJf1CAMh-53" edge="1">
          <mxGeometry relative="1" as="geometry" />
        </mxCell>
        <mxCell id="Kg89tS13pz8DBJf1CAMh-41" value="" style="edgeStyle=orthogonalEdgeStyle;rounded=0;orthogonalLoop=1;jettySize=auto;html=1;" parent="1" source="Kg89tS13pz8DBJf1CAMh-42" target="Kg89tS13pz8DBJf1CAMh-44" edge="1">
          <mxGeometry relative="1" as="geometry" />
        </mxCell>
        <mxCell id="Kg89tS13pz8DBJf1CAMh-42" value="" style="ellipse;shape=startState;fillColor=#000000;strokeColor=#ff0000;" parent="1" vertex="1">
          <mxGeometry x="264.5" y="168" width="30" height="30" as="geometry" />
        </mxCell>
        <mxCell id="Kg89tS13pz8DBJf1CAMh-43" value="" style="edgeStyle=orthogonalEdgeStyle;rounded=0;orthogonalLoop=1;jettySize=auto;html=1;" parent="1" source="Kg89tS13pz8DBJf1CAMh-44" target="Kg89tS13pz8DBJf1CAMh-46" edge="1">
          <mxGeometry relative="1" as="geometry" />
        </mxCell>
        <mxCell id="Kg89tS13pz8DBJf1CAMh-44" value="Login as Admin" style="" parent="1" vertex="1">
          <mxGeometry x="224.5" y="238" width="110" height="50" as="geometry" />
        </mxCell>
        <mxCell id="Kg89tS13pz8DBJf1CAMh-45" value="" style="edgeStyle=orthogonalEdgeStyle;rounded=0;orthogonalLoop=1;jettySize=auto;html=1;" parent="1" source="Kg89tS13pz8DBJf1CAMh-46" target="Kg89tS13pz8DBJf1CAMh-47" edge="1">
          <mxGeometry relative="1" as="geometry" />
        </mxCell>
        <mxCell id="Kg89tS13pz8DBJf1CAMh-46" value="Menu" style="" parent="1" vertex="1">
          <mxGeometry x="224.5" y="348" width="110" height="50" as="geometry" />
        </mxCell>
        <mxCell id="Kg89tS13pz8DBJf1CAMh-47" value="Verify Admin &#xa;ID" style="" parent="1" vertex="1">
          <mxGeometry x="224.5" y="453" width="110" height="50" as="geometry" />
        </mxCell>
        <mxCell id="Kg89tS13pz8DBJf1CAMh-48" value="View Users Log" style="" parent="1" vertex="1">
          <mxGeometry x="470" y="238" width="110" height="50" as="geometry" />
        </mxCell>
        <mxCell id="Kg89tS13pz8DBJf1CAMh-49" value="" style="edgeStyle=orthogonalEdgeStyle;rounded=0;orthogonalLoop=1;jettySize=auto;html=1;" parent="1" source="Kg89tS13pz8DBJf1CAMh-51" target="Kg89tS13pz8DBJf1CAMh-55" edge="1">
          <mxGeometry relative="1" as="geometry" />
        </mxCell>
        <mxCell id="Kg89tS13pz8DBJf1CAMh-50" style="edgeStyle=orthogonalEdgeStyle;rounded=0;orthogonalLoop=1;jettySize=auto;html=1;entryX=0.5;entryY=1.06;entryDx=0;entryDy=0;entryPerimeter=0;" parent="1" source="Kg89tS13pz8DBJf1CAMh-51" target="Kg89tS13pz8DBJf1CAMh-48" edge="1">
          <mxGeometry relative="1" as="geometry" />
        </mxCell>
        <mxCell id="Kg89tS13pz8DBJf1CAMh-51" value="Search User ID" style="" parent="1" vertex="1">
          <mxGeometry x="470" y="348" width="110" height="50" as="geometry" />
        </mxCell>
        <mxCell id="Kg89tS13pz8DBJf1CAMh-52" value="" style="edgeStyle=orthogonalEdgeStyle;rounded=0;orthogonalLoop=1;jettySize=auto;html=1;" parent="1" source="Kg89tS13pz8DBJf1CAMh-53" edge="1">
          <mxGeometry relative="1" as="geometry">
            <mxPoint x="525" y="400" as="targetPoint" />
          </mxGeometry>
        </mxCell>
        <mxCell id="Kg89tS13pz8DBJf1CAMh-53" value="Track User &#xa;Log" style="" parent="1" vertex="1">
          <mxGeometry x="470" y="453" width="110" height="50" as="geometry" />
        </mxCell>
        <mxCell id="Kg89tS13pz8DBJf1CAMh-54" style="edgeStyle=orthogonalEdgeStyle;rounded=0;orthogonalLoop=1;jettySize=auto;html=1;exitX=0.5;exitY=0;exitDx=0;exitDy=0;entryX=0.686;entryY=0;entryDx=0;entryDy=0;entryPerimeter=0;strokeColor=#FF0000;" parent="1" source="Kg89tS13pz8DBJf1CAMh-55" target="Kg89tS13pz8DBJf1CAMh-51" edge="1">
          <mxGeometry relative="1" as="geometry" />
        </mxCell>
        <mxCell id="Kg89tS13pz8DBJf1CAMh-55" value="&lt;div&gt;User does&lt;/div&gt;&lt;div&gt;not exist&lt;br&gt;&lt;/div&gt;" style="rhombus;whiteSpace=wrap;html=1;fillColor=rgb(255, 255, 255);" parent="1" vertex="1">
          <mxGeometry x="620.5" y="333" width="80" height="80" as="geometry" />
        </mxCell>
        <mxCell id="Kg89tS13pz8DBJf1CAMh-56" value="" style="ellipse;shape=endState;fillColor=#000000;strokeColor=#ff0000" parent="1" vertex="1">
          <mxGeometry x="995" y="620" width="30" height="30" as="geometry" />
        </mxCell>
        <mxCell id="Kg89tS13pz8DBJf1CAMh-57" style="edgeStyle=orthogonalEdgeStyle;rounded=0;orthogonalLoop=1;jettySize=auto;html=1;entryX=-0.009;entryY=0.5;entryDx=0;entryDy=0;entryPerimeter=0;" parent="1" source="Kg89tS13pz8DBJf1CAMh-59" target="Kg89tS13pz8DBJf1CAMh-62" edge="1">
          <mxGeometry relative="1" as="geometry" />
        </mxCell>
        <mxCell id="Kg89tS13pz8DBJf1CAMh-58" value="" style="edgeStyle=orthogonalEdgeStyle;rounded=0;orthogonalLoop=1;jettySize=auto;html=1;" parent="1" source="Kg89tS13pz8DBJf1CAMh-59" edge="1">
          <mxGeometry relative="1" as="geometry">
            <mxPoint x="835" y="350" as="targetPoint" />
          </mxGeometry>
        </mxCell>
        <mxCell id="Kg89tS13pz8DBJf1CAMh-59" value="Set User &#xa;Priority" style="fillColor=rgb(255, 255, 255);" parent="1" vertex="1">
          <mxGeometry x="780" y="238" width="110" height="50" as="geometry" />
        </mxCell>
        <mxCell id="Kg89tS13pz8DBJf1CAMh-60" value="" style="edgeStyle=orthogonalEdgeStyle;rounded=0;orthogonalLoop=1;jettySize=auto;html=1;entryX=0.5;entryY=-0.04;entryDx=0;entryDy=0;entryPerimeter=0;" parent="1" source="Kg89tS13pz8DBJf1CAMh-62" target="Kg89tS13pz8DBJf1CAMh-65" edge="1">
          <mxGeometry relative="1" as="geometry" />
        </mxCell>
        <mxCell id="Kg89tS13pz8DBJf1CAMh-61" style="edgeStyle=orthogonalEdgeStyle;rounded=0;orthogonalLoop=1;jettySize=auto;html=1;entryX=0.491;entryY=-0.04;entryDx=0;entryDy=0;entryPerimeter=0;" parent="1" source="Kg89tS13pz8DBJf1CAMh-62" target="Kg89tS13pz8DBJf1CAMh-67" edge="1">
          <mxGeometry relative="1" as="geometry">
            <Array as="points">
              <mxPoint x="1010" y="440" />
              <mxPoint x="819" y="440" />
            </Array>
          </mxGeometry>
        </mxCell>
        <mxCell id="Kg89tS13pz8DBJf1CAMh-62" value="Check Intent &#xa;Level" style="fillColor=rgb(255, 255, 255);" parent="1" vertex="1">
          <mxGeometry x="955" y="238" width="110" height="50" as="geometry" />
        </mxCell>
        <mxCell id="Kg89tS13pz8DBJf1CAMh-63" value="Leaves User Log" style="fillColor=rgb(255, 255, 255);" parent="1" vertex="1">
          <mxGeometry x="780" y="350" width="110" height="50" as="geometry" />
        </mxCell>
        <mxCell id="Kg89tS13pz8DBJf1CAMh-64" style="edgeStyle=orthogonalEdgeStyle;rounded=0;orthogonalLoop=1;jettySize=auto;html=1;entryX=0.5;entryY=0;entryDx=0;entryDy=0;" parent="1" source="Kg89tS13pz8DBJf1CAMh-65" target="Kg89tS13pz8DBJf1CAMh-56" edge="1">
          <mxGeometry relative="1" as="geometry" />
        </mxCell>
        <mxCell id="Kg89tS13pz8DBJf1CAMh-65" value="Report User Log" style="fillColor=rgb(255, 255, 255);" parent="1" vertex="1">
          <mxGeometry x="955" y="480" width="110" height="50" as="geometry" />
        </mxCell>
        <mxCell id="Kg89tS13pz8DBJf1CAMh-66" style="edgeStyle=orthogonalEdgeStyle;rounded=0;orthogonalLoop=1;jettySize=auto;html=1;entryX=-0.018;entryY=0.5;entryDx=0;entryDy=0;entryPerimeter=0;" parent="1" source="Kg89tS13pz8DBJf1CAMh-67" target="Kg89tS13pz8DBJf1CAMh-65" edge="1">
          <mxGeometry relative="1" as="geometry" />
        </mxCell>
        <mxCell id="Kg89tS13pz8DBJf1CAMh-67" value="Raise User Intent&#xa;Level" style="fillColor=rgb(255, 255, 255);" parent="1" vertex="1">
          <mxGeometry x="765" y="480" width="110" height="50" as="geometry" />
        </mxCell>
      </root>
    </mxGraphModel>
  </diagram>
</mxfile>
